<svg xmlns="http://www.w3.org/2000/svg" width="72.625" height="18.094"><path d="M11.675 17.806v-1.825H1.954V.306H.005v17.5h11.67zm17.961-2.362a9.52 9.52 0 0 0 .247-12.562l2.442-2.7h-2.047l-1.53 1.675a8.852 8.852 0 0 0-11.744.813 9.52 9.52 0 0 0-.247 12.563l-2.443 2.7h2.048l1.53-1.65a8.895 8.895 0 0 0 11.744-.84zm-10.486-.663l9.4-10.4a7.851 7.851 0 0 1-.357 9.825 6.594 6.594 0 0 1-9.043.575zm-2.615-5.725a7.368 7.368 0 0 1 1.912-5.15 6.594 6.594 0 0 1 9.043-.575l-9.4 10.4a7.4 7.4 0 0 1-1.554-4.675zM51.2 15.431V8.456h-7.131v1.775h5.256v4.35a7.593 7.593 0 0 1-4.984 1.75 6.39 6.39 0 0 1-4.972-2.05 8.1 8.1 0 0 1 0-10.337 6 6 0 0 1 4.7-2.112 7.714 7.714 0 0 1 5.256 2l1.258-1.5a9.074 9.074 0 0 0-6.44-2.325 8.049 8.049 0 0 0-6.217 2.675 9.708 9.708 0 0 0-.037 12.838 8.293 8.293 0 0 0 6.378 2.587 10.012 10.012 0 0 0 6.933-2.675zm18.751.013a9.519 9.519 0 0 0 .246-12.562l2.443-2.7h-2.048l-1.53 1.675a8.222 8.222 0 0 0-5.4-1.85 8.305 8.305 0 0 0-6.341 2.663 9.519 9.519 0 0 0-.246 12.563l-2.443 2.7h2.048l1.53-1.65a8.895 8.895 0 0 0 11.741-.84zm-10.489-.663l9.4-10.4a7.853 7.853 0 0 1-.358 9.825 6.593 6.593 0 0 1-9.042.575zm-2.615-5.725a7.368 7.368 0 0 1 1.912-5.15 6.593 6.593 0 0 1 9.042-.575l-9.4 10.4a7.4 7.4 0 0 1-1.554-4.675z" fill="#4c4c4c" fill-rule="evenodd"/></svg>