<?xml version="1.0" encoding="utf-8"?><!DOCTYPE svg PUBLIC "-//W3C//DTD SVG 1.1//EN" "http://www.w3.org/Graphics/SVG/1.1/DTD/svg11.dtd"><svg xmlns="http://www.w3.org/2000/svg" xmlns:xlink="http://www.w3.org/1999/xlink"><symbol viewBox="0 0 100 100" id="soc-dr" xmlns="http://www.w3.org/2000/svg"><path fill-rule="evenodd" clip-rule="evenodd" d="M50 0C22.397 0 0 22.397 0 50s22.397 50 50 50c27.549 0 50-22.397 50-50S77.549 0 50 0zm33.026 23.048a42.512 42.512 0 0 1 9.653 26.572c-1.41-.27-15.51-3.145-29.718-1.355-.325-.705-.597-1.465-.922-2.224a127.095 127.095 0 0 0-2.82-6.182c15.727-6.4 22.885-15.618 23.807-16.811zM50 7.375c10.846 0 20.77 4.068 28.308 10.738-.76 1.084-7.213 9.707-22.397 15.401-6.996-12.852-14.75-23.373-15.944-25 3.2-.76 6.562-1.139 10.033-1.139zm-18.167 4.013c1.139 1.519 8.731 12.094 15.835 24.675-19.956 5.314-37.581 5.206-39.48 5.206 2.766-13.232 11.714-24.24 23.645-29.88zM7.267 50.054v-1.301c1.844.054 22.56.325 43.872-6.074 1.247 2.386 2.386 4.826 3.47 7.267-.542.163-1.138.325-1.68.488C30.91 57.538 19.196 76.952 18.22 78.579 11.443 71.041 7.267 61.01 7.267 50.054zM50 92.734a42.41 42.41 0 0 1-26.193-9.003c.76-1.573 9.436-18.275 33.514-26.681.108-.054.163-.054.271-.109 6.02 15.564 8.46 28.634 9.11 32.376-5.151 2.223-10.79 3.416-16.702 3.416zm23.807-7.322c-.434-2.603-2.712-15.076-8.297-30.423 13.395-2.115 25.108 1.356 26.572 1.844-1.843 11.876-8.676 22.126-18.275 28.58z"/></symbol><symbol viewBox="0 0 430.117 430.117" id="soc-in" xmlns="http://www.w3.org/2000/svg"><path d="M430.117 261.543V420.56h-92.188V272.193c0-37.271-13.334-62.707-46.703-62.707-25.473 0-40.632 17.142-47.301 33.724-2.432 5.928-3.058 14.179-3.058 22.477V420.56h-92.219s1.242-251.285 0-277.32h92.21v39.309c-.187.294-.43.611-.606.896h.606v-.896c12.251-18.869 34.13-45.824 83.102-45.824 60.673-.001 106.157 39.636 106.157 124.818zM52.183 9.558C20.635 9.558 0 30.251 0 57.463c0 26.619 20.038 47.94 50.959 47.94h.616c32.159 0 52.159-21.317 52.159-47.94-.606-27.212-20-47.905-51.551-47.905zM5.477 420.56h92.184V143.24H5.477v277.32z"/></symbol><symbol preserveAspectRatio="xMidYMid" viewBox="0 0 256 256" id="soc-sk" xmlns="http://www.w3.org/2000/svg"><path d="M246.939 149.01c-.081.45-.138.905-.223 1.355l-.438-2.579c.24.402.438.82.661 1.225a121.489 121.489 0 0 0 2.015-21.913c0-16.318-3.195-32.15-9.507-47.053-6.09-14.396-14.802-27.325-25.91-38.425-11.092-11.1-24.03-19.813-38.418-25.902-14.899-6.304-30.73-9.499-47.048-9.499-7.69 0-15.394.722-22.89 2.161-.016.004-.036.004-.057.008.422.223.848.422 1.261.653l-2.542-.398c.426-.08.856-.17 1.281-.255C94.84 2.92 83.272 0 71.564 0 52.45 0 34.477 7.443 20.96 20.964 7.447 34.481 0 52.453 0 71.568a71.498 71.498 0 0 0 9.004 34.696c.077-.438.13-.88.215-1.318l.438 2.534c-.227-.397-.426-.811-.653-1.216a121.745 121.745 0 0 0-1.82 20.834c0 16.322 3.195 32.15 9.507 47.057 6.081 14.4 14.798 27.32 25.894 38.42 11.108 11.101 24.029 19.826 38.433 25.899 14.9 6.316 30.735 9.515 47.053 9.515 7.103 0 14.222-.649 21.17-1.881-.405-.227-.818-.434-1.232-.673l2.583.454c-.446.085-.896.138-1.35.219a71.506 71.506 0 0 0 35.206 9.276c19.111 0 37.075-7.432 50.592-20.956 13.52-13.509 20.96-31.485 20.96-50.6a71.57 71.57 0 0 0-9.061-34.817zm-118.386 52.121c-42.945 0-62.158-21.114-62.158-36.937 0-8.117 5.992-13.805 14.25-13.805 18.378 0 13.618 26.389 47.908 26.389 17.555 0 27.248-9.532 27.248-19.286 0-5.866-2.894-12.37-14.453-15.22l-38.198-9.535c-30.763-7.715-36.346-24.345-36.346-39.978 0-32.457 30.56-44.644 59.26-44.644 26.437 0 57.602 14.611 57.602 34.083 0 8.344-7.225 13.196-15.48 13.196-15.685 0-12.798-21.71-44.392-21.71-15.678 0-24.362 7.1-24.362 17.259 0 10.14 12.382 13.379 23.133 15.827l28.274 6.276c30.97 6.9 38.823 24.982 38.823 42.013 0 26.377-20.247 46.072-61.109 46.072zm19.456 44.304c.414.24.827.446 1.233.673.454-.081.904-.134 1.35-.22l-2.583-.453zm98.707-95.07c.085-.45.142-.904.223-1.354-.223-.406-.422-.823-.66-1.225l.437 2.579zM9.219 104.946c-.085.438-.138.88-.215 1.318.227.405.426.819.653 1.216l-.438-2.534zm97.166-95.905c-.413-.231-.839-.43-1.26-.653-.426.085-.856.174-1.282.255l2.542.398z"/></symbol><symbol viewBox="119 156.523 404 329.021" id="soc-tw" xmlns="http://www.w3.org/2000/svg"><defs><path d="M245.79 482.54c150.95 0 233.51-125.05 233.51-233.5 0-3.55 0-7.09-.24-10.61 16.06-11.62 29.92-26 40.94-42.48a163.653 163.653 0 0 1-47.14 12.91 82.247 82.247 0 0 0 36.08-45.39 164.335 164.335 0 0 1-52.11 19.92c-31.08-33.05-83.06-34.64-116.11-3.56a82.11 82.11 0 0 0-23.74 78.41 232.99 232.99 0 0 1-169.14-85.74c-21.78 37.49-10.66 85.47 25.41 109.55A81.512 81.512 0 0 1 136 271.78v1.04c.01 39.06 27.55 72.71 65.84 80.44a81.863 81.863 0 0 1-37.06 1.41c10.76 33.43 41.57 56.33 76.68 56.99a164.65 164.65 0 0 1-101.92 35.2c-6.53-.01-13.06-.4-19.54-1.18a232.37 232.37 0 0 0 125.79 36.8" id="da"/></defs><use xlink:href="#da"/><use xlink:href="#da" fill-opacity="0" stroke="#000" stroke-opacity="0"/></symbol></svg>