<?xml version="1.0" encoding="utf-8"?><svg xmlns="http://www.w3.org/2000/svg" xmlns:xlink="http://www.w3.org/1999/xlink"><symbol viewBox="0 0 40 28" id="delivery" xmlns="http://www.w3.org/2000/svg"><defs><style>.acls-1{fill:#ff7270;fill-rule:evenodd}</style></defs><path id="a_73" data-name="73" class="acls-1" d="M1314 3936v10h20v-10h-20zm-4 0h-2a6 6 0 0 0-6 6v2a2.006 2.006 0 0 1-2 2 6 6 0 0 0-6 6v8h4.37a5.962 5.962 0 0 0 11.26 0h6.74a5.962 5.962 0 0 0 11.26 0h6.37v-10h-24v-14zm-6 24a2 2 0 0 1-2-2 2 2 0 1 1 2 2zm16-2a2 2 0 1 1 2 2 2.006 2.006 0 0 1-2-2z" transform="translate(-1294 -3936)"/></symbol><symbol viewBox="0 0 40 40" id="exclusive" xmlns="http://www.w3.org/2000/svg"><defs><style>.bcls-1{fill:#ff7270;fill-rule:evenodd}</style></defs><path id="b_8" data-name="8" class="bcls-1" d="M1106 3970h18v-20h-18v20zm22 0h18v-20h-18v20zm13.63-32a5.816 5.816 0 0 0 .37-2 6 6 0 0 0-6-6h-4a6 6 0 0 0-6 6 6 6 0 0 0-6-6h-4a6 6 0 0 0-6 6 5.816 5.816 0 0 0 .37 2H1106v8h40v-8h-4.37zm-19.63 0h-6a2 2 0 0 1 0-4h4a2.006 2.006 0 0 1 2 2v2zm14 0h-6v-2a2.006 2.006 0 0 1 2-2h4a2 2 0 0 1 0 4z" transform="translate(-1106 -3930)"/></symbol><symbol viewBox="0 0 40 39.97" id="money" xmlns="http://www.w3.org/2000/svg"><defs><style>.ccls-1{fill:#ff7270;fill-rule:evenodd}</style></defs><path id="c_53" data-name="53" class="ccls-1" d="M561.34 3932.58a1.993 1.993 0 0 0-2.76-.02l-3.48 3.24-4.62-5.12a1.932 1.932 0 0 0-1.54-.66 2 2 0 0 0-1.5.72l-5.94 7.28h25.48zm13.66 9.43h-40V3970h40v-8h-6a6 6 0 1 1 0-11.99h6v-8zm-8 13.99a2 2 0 0 0 2 2h6v-4h-6a2 2 0 0 0-2 2z" transform="translate(-535 -3930.03)"/></symbol><symbol viewBox="0 0 40 40" id="price" xmlns="http://www.w3.org/2000/svg"><defs><style>.dcls-1{fill:#ff7270;fill-rule:evenodd}</style></defs><path id="d_84" data-name="84" class="dcls-1" d="M935 3930a20 20 0 1 0 20 20 20.021 20.021 0 0 0-20-20zm0 18a5.984 5.984 0 0 1 2 11.63v2.37h-4v-2.37a5.994 5.994 0 0 1-4-5.63h4a2 2 0 1 0 2-2 5.984 5.984 0 0 1-2-11.63V3938h4v2.37a5.994 5.994 0 0 1 4 5.63h-4a2 2 0 1 0-2 2z" transform="translate(-915 -3930)"/></symbol><symbol viewBox="0 0 40 40" id="ship" xmlns="http://www.w3.org/2000/svg"><defs><style>.ecls-1{fill:#ff7270;fill-rule:evenodd}</style></defs><path id="e_78" data-name="78" class="ecls-1" d="M381.649 3930h-11.667v12H383.6zm-11.667 16v10.08l-5.982-3.73-5.983 3.73V3946h-14.026l.066 24h39.885l.06-24h-14.02zm-11.966-16h-11.663l-1.969 12h13.632v-12zm7.978 0h-3.989v12h3.989v-12z" transform="translate(-344 -3930)"/></symbol><symbol viewBox="0 0 12.03 25.5" id="soc-fb" xmlns="http://www.w3.org/2000/svg"><defs><style>.fcls-1{fill:#fff;fill-rule:evenodd}</style></defs><path class="fcls-1" d="M-.02 8.43h2.59V5.87c0-1.13.02-2.87.83-3.95A4.563 4.563 0 0 1 7.41 0a16.045 16.045 0 0 1 4.63.47l-.64 3.91a8.563 8.563 0 0 0-2.09-.32c-1 0-1.9.37-1.9 1.39v2.98h4.12l-.29 3.82H7.41V25.5H2.57V12.25H-.02V8.43z"/></symbol><symbol viewBox="0 0 25.5 25.5" id="soc-pi" xmlns="http://www.w3.org/2000/svg"><defs><style>.gcls-1{fill:#fff;fill-rule:evenodd}</style></defs><path class="gcls-1" d="M12.75 0a12.752 12.752 0 0 0-5.12 24.43 11.866 11.866 0 0 1 .22-2.93c.25-1.04 1.64-6.95 1.64-6.95a4.954 4.954 0 0 1-.4-2.02c0-1.89 1.09-3.3 2.46-3.3a1.709 1.709 0 0 1 1.72 1.92c0 1.16-.75 2.91-1.13 4.52a1.974 1.974 0 0 0 2.01 2.46c2.42 0 4.05-3.1 4.05-6.78 0-2.79-1.89-4.89-5.31-4.89a6.043 6.043 0 0 0-6.28 6.11 3.7 3.7 0 0 0 .84 2.5.623.623 0 0 1 .19.71c-.06.23-.2.8-.26 1.02a.439.439 0 0 1-.64.32c-1.78-.72-2.61-2.67-2.61-4.87 0-3.62 3.05-7.96 9.11-7.96 4.87 0 8.07 3.52 8.07 7.3 0 5-2.78 8.74-6.88 8.74a3.64 3.64 0 0 1-3.11-1.59s-.74 2.94-.9 3.51a10.9 10.9 0 0 1-1.28 2.73 12.6 12.6 0 0 0 3.61.52 12.75 12.75 0 0 0 0-25.5"/></symbol><symbol viewBox="0 0 26.19 20.96" id="soc-tw" xmlns="http://www.w3.org/2000/svg"><defs><style>.hcls-1{fill:#fff;fill-rule:evenodd}</style></defs><path class="hcls-1" d="M26.2 2.47a10.955 10.955 0 0 1-3.08.83A5.285 5.285 0 0 0 25.48.37a10.853 10.853 0 0 1-3.42 1.29 5.39 5.39 0 0 0-9.29 3.62 5.255 5.255 0 0 0 .13 1.2A15.341 15.341 0 0 1 1.82.95a5.267 5.267 0 0 0 1.67 7.07 5.321 5.321 0 0 1-2.44-.66v.07a5.322 5.322 0 0 0 4.31 5.19 5.653 5.653 0 0 1-2.42.09 5.385 5.385 0 0 0 5.02 3.68A11.1 11.1 0 0 1 0 18.58a15.4 15.4 0 0 0 8.24 2.38 15.075 15.075 0 0 0 15.3-15.07c0-.23-.01-.46-.02-.68a10.735 10.735 0 0 0 2.68-2.74"/></symbol><symbol viewBox="0 0 25.5 18" id="soc-yt" xmlns="http://www.w3.org/2000/svg"><defs><style>.icls-1{fill:#fff;fill-rule:evenodd}</style></defs><path class="icls-1" d="M17.7 9l-8.35 4.93V4.07zm7.8 4.57V4.41s0-4.42-4.4-4.42H4.39S0-.01 0 4.41v9.16s0 4.41 4.39 4.41H21.1s4.4 0 4.4-4.41"/></symbol><symbol viewBox="0 0 39.312 39.63" id="support" xmlns="http://www.w3.org/2000/svg"><defs><style>.jcls-1{fill:#ff7270;fill-rule:evenodd}</style></defs><path id="j_32" data-name="32" class="jcls-1" d="M750.843 3969.89c-4.555 0-10.591-3.08-16.075-8.61-7.915-7.96-10.79-17.09-6.686-21.22l3.909-3.94a3.916 3.916 0 0 1 5.554 0l4.166 4.19a3.983 3.983 0 0 1 0 5.6l-1.792 1.8c0 .61.679 2.67 3.18 5.19s4.539 3.2 5.146 3.2l1.792-1.81a3.916 3.916 0 0 1 5.554 0l4.165 4.2a3.97 3.97 0 0 1 0 5.59l-3.909 3.94a6.81 6.81 0 0 1-5.004 1.87zm.8-35.5a11.794 11.794 0 0 1 9.819 9.73 11.952 11.952 0 0 1-1.842 8.63l2.793 2.82a15.828 15.828 0 0 0-10.2-25.1 15.7 15.7 0 0 0-11.747 2.99l2.8 2.82a11.794 11.794 0 0 1 8.375-1.89zm4.061 13.73h-7.854v-9.89h3.927v5.94h3.923v3.95z" transform="translate(-726.219 -3930.28)"/></symbol></svg>